<mxfile host="app.diagrams.net" modified="2023-10-24T06:35:15.221Z" agent="Mozilla/5.0 (Windows NT 10.0; Win64; x64) AppleWebKit/537.36 (KHTML, like Gecko) Chrome/118.0.0.0 Safari/537.36" version="22.0.6" etag="7YJNrC6icdGR0epNK2VV" type="github">
  <diagram name="第 1 页" id="pDuM2ejOrW6lAlicVDak">
    <mxGraphModel>
      <root>
        <mxCell id="0" />
        <mxCell id="1" parent="0" />
      </root>
    </mxGraphModel>
  </diagram>
</mxfile>
